<svg width="37" height="37" viewBox="0 0 37 37" fill="none" xmlns="http://www.w3.org/2000/svg">
<path fill-rule="evenodd" clip-rule="evenodd" d="M9.25 0C4.14136 0 0 4.14136 0 9.25V27.75C0 32.8586 4.14136 37 9.25 37H27.75C32.8586 37 37 32.8586 37 27.75V9.25C37 4.14136 32.8586 0 27.75 0H9.25ZM27.7574 13.7918C28.4411 12.937 28.3026 11.6896 27.4477 11.0058C26.593 10.3219 25.3456 10.4605 24.6617 11.3153L15.2904 23.0294L11.5416 20.2179C10.6659 19.561 9.42348 19.7385 8.76665 20.6143C8.10985 21.49 8.28731 22.7325 9.16308 23.3893L14.4488 27.3536C15.3053 27.996 16.5171 27.842 17.1859 27.006L27.7574 13.7918Z" fill="black"/>
</svg>
